# xmcd CD database file
#
# Track frame offsets:
#	150
#	11583
#	24450
#	41624
#	56932
#	66932
#	82626
#	101372
#	119363
#	134180
#	143842
#	157175
#	167189
#	185528
#	209310
#	222844
#	234622
#	246230
#
# Disc length: 3561 seconds
#
# Revision: 1
# Processed by: cddbd v1.5.2PL0 Copyright (c) Steve Scherf et al.
# Submitted via: CDex 1.70beta2
#
DISCID=080de712
DTITLE=Time Life Music - Classic Country - Outlaws
DYEAR=2006
DGENRE=Country
TTITLE0=Waylon Jennings - Ladies Love Outlaws
TTITLE1=Willie Nelson - Bloody Mary Morning
TTITLE2=Johnny Paycheck - 11 Months And 29 Days
TTITLE3=David Allan Coe - Longhaired Redneck
TTITLE4=Merle Haggard - Mama Tried
TTITLE5=Kris Kristofferson - Why Me
TTITLE6=Johnny Cash - Sunday Morning Coming Down
TTITLE7=Jerry Jeff Walker - Pissin' In The Wind
TTITLE8=Kinky Friedman - Sold American
TTITLE9=Johnny Rodriguez - Ridin' My Thumb To Mexico
TTITLE10=Waylon Jennings - Are You Sure Hank Done It This Way
TTITLE11=Billy Joe Shaver - I Been To Georgia On A Fast Train
TTITLE12=Charlie Daniels - Long Haired Country Boy
TTITLE13=David Allan Coe - You Never Called Me By My Name
TTITLE14=Gary Stewart - Out Of Hand
TTITLE15=Johnny Paycheck - Take This Job And Shove It
TTITLE16=Steve Earle - Guitar Town
TTITLE17=Highwaymen - Desperados Waiting For A Train
EXTD=YEAR: 2006
EXTT0=
EXTT1=
EXTT2=
EXTT3=
EXTT4=
EXTT5=
EXTT6=
EXTT7=
EXTT8=
EXTT9=
EXTT10=
EXTT11=
EXTT12=
EXTT13=
EXTT14=
EXTT15=
EXTT16=
EXTT17=
PLAYORDER=
